<?xml version="1.0" encoding="UTF-8"?>
<svg id="Layer_2" xmlns="http://www.w3.org/2000/svg" version="1.1" viewBox="0 0 1174.9 477.32">
  <!-- Generator: Adobe Illustrator 30.5.1, SVG Export Plug-In . SVG Version: 2.1.4 Build 3)  -->
  <defs>
    <style>
      .st0 {
        fill: #fff;
      }
    </style>
  </defs>
  <path class="st0" d="M839.88,477.32c-11.06,0-21.07-4.13-28.22-11.66l-68.12-68.4h-53.36c-6.45,0-12.51-1.33-17.94-3.9-5.38,2.58-11.48,3.9-18.04,3.9h-115.18c-9.63,0-18.44-2.95-25.27-8.43-20.26,16.99-45.58,26.22-72.45,26.22-49.21,0-92.14-31.35-107.63-77.33h-63.17v19.81c0,23.04-16.66,39.78-39.65,39.78h-120.44c-11.53,0-21.84-4.23-29.05-11.93L11.93,315.8c-7.71-7.26-11.93-17.59-11.93-29.17V48.28C0,25.34,16.64,8.56,39.55,8.38h243.17c11.53,0,21.84,4.25,29.05,11.93l37,37.08h83.53c6.45,0,12.51,1.33,17.94,3.9,5.38-2.58,11.48-3.9,18.01-3.9h111.48v-17.61c0-23.04,16.66-39.78,39.63-39.78h115.18c11.53,0,21.84,4.25,29.05,11.93l45.48,45.58h67.35c11.46,0,21.92,4.35,29.5,12.26l10.26,10.28c6.63-13.81,20.09-22.42,36-22.42h114.66c10.53,0,20.19,4.03,27.19,11.38l69.42,69.57c2.1,1.95,3.68,3.98,4.83,5.55l.23.33c6.95,10.28,8.33,23.59,3.63,35.65l-79.88,203.47c-10.33,26.12-23.29,52.74-47.86,70.6-21.99,15.99-50.19,23.12-91.47,23.12h-113.13.07Z"/>
  <path d="M1158.18,151.61c-1.03-1.4-2.05-2.7-3.35-3.85l-69.72-69.88c-4.63-4.88-11.06-7.61-18.24-7.61h-114.66c-12.71,0-23.12,7.98-26.57,20.34l-3.73,13.01-24.89-24.97c-5.13-5.4-12.33-8.48-20.54-8.48h-72.55l-49.31-49.41c-4.75-5.15-11.81-8.11-20.04-8.11h-115.18c-15.91,0-27.09,11.18-27.09,27.14v31.52c-2.7-.78-5.65-1.28-8.86-1.28h-115.18c-7.18,0-13.36,2.18-17.99,6.18-4.63-3.85-10.78-6.18-17.99-6.18h-88.71l-40.83-40.9c-4.75-5.15-11.81-8.11-20.04-8.11H39.65c-15.91.13-27.09,11.33-27.09,27.29v238.32c0,8.23,2.95,15.31,8.08,20.09l69.72,69.88c4.75,5.15,11.81,8.11,20.04,8.11h120.44c15.91,0,27.09-11.18,27.09-27.14v-32.42h85.14c10.78,44.41,50.59,77.33,98.22,77.33,28.37,0,54.06-11.71,72.43-30.75,0,0,.13,0,.25-.13l5,5.03c4.75,5.15,11.81,8.11,20.04,8.11h115.18c7.18,0,13.36-2.18,17.99-6.18,4.63,3.85,10.78,6.18,17.99,6.18h58.54l71.9,72.2c4.63,4.9,11.31,7.86,19.26,7.86h113.13c38.53,0,64.47-6.43,84.11-20.71,21.97-15.96,33.9-40.65,43.53-64.97l79.86-203.47c3.2-8.23,2.3-17.11-2.3-23.92h0l-.02-.13Z"/>
  <path class="st0" d="M282.73,36.83H39.65c-7.33,0-11.43,4.1-11.43,11.46v238.32c0,7.33,4.1,11.46,11.43,11.46h120.44c7.33,0,11.43-4.13,11.43-11.46v-48.13h108c7.31,0,11.41-4.1,11.41-11.46v-56.49c0-7.33-4.1-11.46-11.41-11.46h-108v-12.48h111.05c7.33,0,11.43-4.1,11.43-11.46V48.26c0-7.33-4.1-11.46-11.43-11.46h.15v.03Z"/>
  <path class="st0" d="M583.59,85.99h-115.18c-7.33,0-11.43,4.1-11.43,11.46v86.24c0,4.1-2.05,8.36-6.8,8.36-4.1,0-6.28-4.1-6.28-8.36v-86.24c0-7.33-4.1-11.46-11.43-11.46h-115.18c-7.33,0-11.43,4.1-11.43,11.46v123.29c0,55.34,28.12,85.71,70.88,85.71,52.64,0,80.26-32.42,80.26-67.42v47.61c0,7.33,4.1,11.46,11.43,11.46h115.18c7.33,0,11.43-4.13,11.43-11.46V97.47c0-7.33-4.1-11.46-11.43-11.46h0v-.03Z"/>
  <path class="st0" d="M1066.89,85.99h-114.66c-5.78,0-9.88,3.1-11.41,8.88l-24.54,86.24-27.59-86.74c-2.05-5.8-6.28-8.36-11.93-8.36h-111.05c-7.33,0-10.93,6.3-8.36,13.13l67.27,178.23h-55.21c-6.8,0-10.41,3.6-10.41,10.43v79.91c0,6.8,3.58,10.43,10.41,10.43h113.13c70.35,0,91.82-22.02,113.13-75.8l79.73-203.32c2.58-6.8-1.03-13.13-8.36-13.13l-.13.13h0l-.02-.03Z"/>
  <path class="st0" d="M734.85,28.47h-115.31c-6.3,0-11.43,5.13-11.43,11.46v246.83c0,6.33,5.13,11.46,11.43,11.46h115.31c6.3,0,11.43-5.13,11.43-11.46V39.95c0-6.33-5.13-11.46-11.43-11.46h0v-.03Z"/>
</svg>