<?xml version="1.0" encoding="UTF-8"?>
<svg id="Layer_2" data-name="Layer 2" xmlns="http://www.w3.org/2000/svg" viewBox="0 0 1228.49 481.67">
  <defs>
    <style>
      .cls-1 {
        fill: #fff;
      }
    </style>
  </defs>
  <g id="Layer_1-2" data-name="Layer 1">
    <g>
      <path d="M1223.98,148c-1.04-1.51-2.23-2.88-3.53-4.11l-74.49-74.49c-4.9-5.2-11.82-8.13-19.52-8.13h-122.56c-13.59,0-24.71,8.5-28.35,21.68l-3.96,13.92-26.57-26.56c-5.48-5.79-13.11-9.03-21.9-9.03h-77.46l-52.67-52.65c-5.13-5.44-12.57-8.63-21.4-8.63h-123.12c-17.06,0-28.97,11.91-28.97,28.97v33.67c-2.92-.88-6.09-1.36-9.47-1.36h-123.12c-7.64,0-14.25,2.39-19.22,6.57-4.97-4.17-11.58-6.57-19.22-6.57h-94.75s-.07-.07-.11-.1l-43.63-43.63c-5.13-5.44-12.57-8.63-21.4-8.63H28.97C11.91,8.91,0,20.83,0,37.88v254.03c0,8.82,3.19,16.27,8.63,21.4l74.49,74.49c5.13,5.44,12.57,8.63,21.4,8.63h128.69c17.06,0,28.97-11.91,28.97-28.97v-34.54h90.93c11.48,47.31,54.11,82.44,104.95,82.44,30.37,0,57.81-12.54,77.43-32.72.08-.06.15-.12.23-.18l5.3,5.3c5.13,5.46,12.6,8.67,21.44,8.67h123.12c7.65,0,14.25-2.4,19.22-6.58,4.97,4.18,11.57,6.58,19.22,6.58h62.54l76.75,76.91c4.94,5.24,12.1,8.32,20.6,8.32h120.89c41.13,0,68.85-6.8,89.89-22.05,23.42-16.97,36.2-43.32,46.53-69.26,0-.02,85.29-216.85,85.31-216.89,3.36-8.75,2.42-18.27-2.52-25.47Z"/>
      <g>
        <path class="cls-1" d="M288.57,25.63H28.97c-7.8,0-12.26,4.46-12.26,12.26v254.03c0,7.8,4.46,12.26,12.26,12.26h128.69c7.8,0,12.26-4.46,12.26-12.26v-51.25h115.32c7.8,0,12.26-4.46,12.26-12.26v-60.17c0-7.8-4.46-12.26-12.26-12.26h-115.32v-13.37h118.66c7.8,0,12.26-4.46,12.26-12.26V37.88c0-7.8-4.46-12.26-12.26-12.26Z"/>
        <path class="cls-1" d="M610.01,77.99h-123.12c-7.8,0-12.26,4.46-12.26,12.26v91.92c0,4.46-2.23,8.91-7.24,8.91-4.46,0-6.69-4.46-6.69-8.91v-91.92c0-7.8-4.46-12.26-12.26-12.26h-123.12c-7.8,0-12.26,4.46-12.26,12.26v131.47c0,59.05,30.08,91.36,75.76,91.36,56.27,0,85.79-34.54,85.79-71.86v50.7c0,7.8,4.46,12.26,12.26,12.26h123.12c7.8,0,12.26-4.46,12.26-12.26V90.25c0-7.8-4.46-12.26-12.26-12.26Z"/>
        <path class="cls-1" d="M1126.44,77.99h-122.56c-6.13,0-10.58,3.34-12.26,9.47l-26.18,91.92-29.53-92.48c-2.23-6.13-6.69-8.91-12.81-8.91h-118.66c-7.8,0-11.7,6.69-8.91,13.93l71.86,189.97h-59.05c-7.24,0-11.14,3.9-11.14,11.14v85.23c0,7.24,3.9,11.14,11.14,11.14h120.89c75.21,0,98.05-23.4,120.89-80.78l85.23-216.71c2.79-7.24-1.11-13.93-8.91-13.93Z"/>
        <rect class="cls-1" x="636.2" y="16.71" width="147.63" height="287.46" rx="12.26" ry="12.26"/>
      </g>
    </g>
  </g>
</svg>